<svg width="41" height="40" viewBox="0 0 41 40" fill="none" xmlns="http://www.w3.org/2000/svg">
<path d="M16.3899 19C15.2233 19 14.2788 20.0556 14.2788 21.3333C14.2788 22.6111 15.2233 23.6667 16.3899 23.6667C17.5566 23.6667 18.501 22.6111 18.501 21.3333C18.501 20.0556 17.5566 19 16.3899 19ZM24.001 19C22.8344 19 21.8899 20.0556 21.8899 21.3333C21.8899 22.6111 22.8344 23.6667 24.001 23.6667C25.1677 23.6667 26.1121 22.6111 26.1121 21.3333C26.1121 20.0556 25.2233 19 24.001 19ZM0.278809 20C0.278809 31.0556 9.22325 40 20.2788 40C31.3344 40 40.2788 31.0556 40.2788 20C40.2788 8.94444 31.3344 0 20.2788 0C9.22325 0 0.278809 8.94444 0.278809 20ZM26.1121 28.7778C26.1121 28.7778 25.3344 27.8889 24.7233 27.0556C27.4455 26.2778 28.501 24.5556 28.501 24.5556C27.6677 25.1111 26.8344 25.5 26.1121 25.7778C25.0566 26.2222 24.0566 26.5 23.0566 26.6667C21.0566 27.0556 19.2233 26.9444 17.6122 26.6667C16.4455 26.4444 15.3899 26.1111 14.5566 25.7778C14.0566 25.6111 13.5566 25.3333 13.001 25.0556C12.9455 25 12.8899 25 12.8344 24.9444C12.7788 24.9444 12.7788 24.8889 12.7233 24.8889C12.3344 24.6667 12.1121 24.5556 12.1121 24.5556C12.1121 24.5556 13.1121 26.2222 15.7788 27C15.1677 27.7778 14.3899 28.7222 14.3899 28.7222C9.77881 28.5556 8.00103 25.5556 8.00103 25.5556C8.00103 18.8333 11.001 13.3333 11.001 13.3333C14.001 11.0556 16.8899 11.1111 16.8899 11.1111L17.1121 11.3889C13.3344 12.5 11.6121 14.1111 11.6121 14.1111C11.6121 14.1111 12.0566 13.8333 12.8344 13.5C15.0566 12.5 16.8344 12.2222 17.6122 12.1667C17.7233 12.1667 17.8344 12.1111 17.9455 12.1111C19.2232 11.9444 20.6677 11.8889 22.1677 12.0556C24.1677 12.2778 26.2788 12.8889 28.4455 14.0556C28.4455 14.0556 26.7788 12.5 23.2232 11.3889L23.501 11.0556C23.501 11.0556 26.3899 11 29.3899 13.2778C29.3899 13.2778 32.3899 18.7222 32.3899 25.5C32.501 25.6111 30.7233 28.6667 26.1121 28.7778Z" fill="url(#paint0_linear)"/>
<defs>
<linearGradient id="paint0_linear" x1="20.2788" y1="0" x2="20.2788" y2="40" gradientUnits="userSpaceOnUse">
<stop stop-color="#5F8AFA"/>
<stop offset="1" stop-color="#6B6EF9"/>
</linearGradient>
</defs>
</svg>
