<svg width="41" height="40" viewBox="0 0 41 40" fill="none" xmlns="http://www.w3.org/2000/svg">
<path d="M36.2622 8.14505C36.0949 7.86611 35.8717 7.64296 35.6485 7.36402C34.8117 6.35983 33.9191 5.46723 32.915 4.6304C32.6918 4.40725 32.4128 4.23989 32.1339 4.01674C28.7866 1.50628 24.6025 0 20.1395 0C15.6764 0 11.4923 1.50628 8.14507 4.01674C7.86613 4.1841 7.64296 4.40725 7.36402 4.6304C6.35984 5.46723 5.46722 6.35983 4.6304 7.36402C4.40725 7.58717 4.2399 7.86611 4.01674 8.14505C1.50628 11.4923 0 15.6764 0 20.1395C0 30.1255 7.30822 38.4379 16.9038 39.9442V25.1604H13.8912V20.0837H16.9038C16.9038 20.0837 16.9038 16.6806 16.9038 15.9554C16.9038 15.1743 16.7364 10.0976 23.2636 10.0976H27.8382V15.3975H24.4909C23.8215 15.3975 23.1521 16.1227 23.1521 16.6248C23.1521 17.1269 23.1521 20.0837 23.1521 20.0837H27.8382C27.6708 22.7615 27.2803 25.1604 27.2803 25.1604H23.1521V40C32.8592 38.5495 40.2789 30.2371 40.2789 20.1395C40.2789 15.6206 38.7727 11.4923 36.2622 8.14505Z" fill="url(#paint0_linear)"/>
<defs>
<linearGradient id="paint0_linear" x1="20.1395" y1="0" x2="20.1395" y2="40" gradientUnits="userSpaceOnUse">
<stop stop-color="#5F8AFA"/>
<stop offset="1" stop-color="#6B6EF9"/>
</linearGradient>
</defs>
</svg>
