<svg width="112" height="30" viewBox="0 0 112 30" fill="none" xmlns="http://www.w3.org/2000/svg">
<g clip-path="url(#clip0)">
<path d="M55.6123 6.26667V23.7667C55.6123 23.9 55.5148 24.0333 55.3524 24.0333H53.5658C52.7537 24.0333 51.9741 23.6 51.5193 22.9L43.4634 10.1333L43.7232 16.5V23.8C43.7232 23.9333 43.6258 24.0667 43.4634 24.0667H41.1245C40.9946 24.0667 40.8647 23.9667 40.8647 23.8V6.26667C40.8647 6.13333 40.9621 6 41.1245 6H42.8786C43.6907 6 44.4703 6.43333 44.9251 7.13333L52.9811 19.8667L52.7212 13.5V6.26667C52.7212 6.13333 52.8187 6 52.9811 6H55.3199C55.5148 6 55.6123 6.1 55.6123 6.26667Z" fill="#262626"/>
<path d="M79.585 24H77.1162C76.9538 24 76.8239 23.8333 76.8888 23.6667L83.4505 6.23333C83.5155 6.1 83.6454 6 83.7754 6H86.8938C87.0562 6 87.1862 6.1 87.2187 6.23333L93.8129 23.6667C93.8778 23.8333 93.7479 24 93.5855 24H91.1167C91.0193 24 90.9218 23.9333 90.8893 23.8333L85.5945 9.5C85.5295 9.3 85.2047 9.3 85.1397 9.5L79.8448 23.8333C79.7799 23.9333 79.6824 24 79.585 24Z" fill="#262626"/>
<path d="M111.029 23.6L106.092 17.1333C108.885 16.6 110.509 14.6667 110.509 11.7C110.509 8.3 108.366 6 104.532 6H97.6459C97.451 6 97.2886 6.16667 97.2886 6.36667C97.2886 7.7 98.3281 8.76667 99.6274 8.76667H104.273C106.579 8.76667 107.683 9.96667 107.683 11.7333C107.683 13.5 106.611 14.7 104.273 14.7H97.7109C97.516 14.7 97.3535 14.8667 97.3535 15.0667V23.7333C97.3535 23.8667 97.451 24 97.6134 24H99.9522C100.082 24 100.212 23.9 100.212 23.7333V17.3H102.908L107.196 23.0333C107.651 23.6667 108.366 24 109.145 24H110.932C111.062 24 111.159 23.7667 111.029 23.6Z" fill="#262626"/>
<path d="M72.1789 6H61.2969C61.102 6 60.972 6.13333 60.972 6.33333C60.972 7.66667 62.044 8.76667 63.3434 8.76667H72.1789C72.3089 8.76667 72.4388 8.66667 72.4388 8.5V6.23333C72.4063 6.1 72.3089 6 72.1789 6ZM72.1789 21.2333H64.058C63.9281 21.2333 63.7981 21.1333 63.7981 20.9667V16.4667C63.7981 16.3333 63.8956 16.2 64.058 16.2H71.5618C71.6917 16.2 71.8216 16.1 71.8216 15.9333V13.6667C71.8216 13.5333 71.7242 13.4 71.5618 13.4H61.3294C61.1345 13.4 60.972 13.5667 60.972 13.7667V23.6C60.972 23.8 61.1345 23.9667 61.3294 23.9667H72.1789C72.3089 23.9667 72.4388 23.8667 72.4388 23.7V21.4333C72.4063 21.3333 72.3089 21.2333 72.1789 21.2333Z" fill="#262626"/>
<path d="M23.4533 1.53333L17.3463 10.8333C16.924 11.4667 17.7361 12.2333 18.3208 11.7L24.3303 6.33333C24.4927 6.2 24.7201 6.3 24.7201 6.53333V23.3C24.7201 23.5333 24.4278 23.6333 24.2978 23.4667L6.10694 1.13333C5.52223 0.4 4.67766 0 3.73563 0H3.08595C1.3968 0 0 1.43333 0 3.2V26.8C0 28.5667 1.3968 30 3.11844 30C4.1904 30 5.1974 29.4333 5.7821 28.4667L11.889 19.1667C12.3113 18.5333 11.4992 17.7667 10.9145 18.3L4.90504 23.6333C4.74263 23.7667 4.51524 23.6667 4.51524 23.4333V6.7C4.51524 6.46667 4.80759 6.36667 4.93753 6.53333L23.1284 28.8667C23.7131 29.6 24.5902 30 25.4997 30H26.1494C27.871 30 29.2678 28.5667 29.2678 26.8V3.2C29.2354 1.43333 27.8386 0 26.1169 0C25.045 0 24.038 0.566667 23.4533 1.53333Z" fill="#262626"/>
</g>
<defs>
<clipPath id="clip0">
<rect width="111.094" height="30" fill="white"/>
</clipPath>
</defs>
</svg>
