<svg width="40" height="40" viewBox="0 0 40 40" fill="none" xmlns="http://www.w3.org/2000/svg">
<path d="M19.7222 13.3333C16.0556 13.3333 13.0556 16.3333 13.0556 20C13.0556 23.6667 16.0556 26.6667 19.7222 26.6667C23.3889 26.6667 26.3889 23.6667 26.3889 20C26.3889 16.3333 23.3889 13.3333 19.7222 13.3333ZM20 0C8.94444 0 0 8.94444 0 20C0 31.0556 8.94444 40 20 40C31.0556 40 40 31.0556 40 20C40 8.94444 31.0556 0 20 0ZM19.7222 30.2778C14.0556 30.2778 9.44444 25.6667 9.44444 20C9.44444 14.3333 14.0556 9.72222 19.7222 9.72222C25.3889 9.72222 30 14.3333 30 20C30 25.6667 25.3889 30.2778 19.7222 30.2778ZM30.3889 11.7222C29.0556 11.7222 28 10.6667 28 9.33333C28 8 29.0556 6.94444 30.3889 6.94444C31.7222 6.94444 32.7778 8 32.7778 9.33333C32.7778 10.6667 31.7222 11.7222 30.3889 11.7222Z" fill="url(#paint0_linear)"/>
<defs>
<linearGradient id="paint0_linear" x1="20" y1="0" x2="20" y2="40" gradientUnits="userSpaceOnUse">
<stop stop-color="#5F8AFA"/>
<stop offset="1" stop-color="#6B6EF9"/>
</linearGradient>
</defs>
</svg>
