<svg width="40" height="40" viewBox="0 0 40 40" fill="none" xmlns="http://www.w3.org/2000/svg">
<path d="M0 20C0 31.0556 8.94444 40 20 40C31.0556 40 40 31.0556 40 20C40 8.94444 31.0556 0 20 0C8.94444 0 0 8.94444 0 20ZM15.7222 28.8889H11.3333V14.7778H15.7222V28.8889ZM13.5 13.0556C12.1111 13.0556 11.2222 12.0556 11.2222 10.8889C11.2222 9.66667 12.1667 8.72222 13.5556 8.72222C14.9445 8.72222 15.8333 9.66667 15.8889 10.8889C15.8889 12.1111 15 13.0556 13.5 13.0556ZM31.1667 28.8889H26.7778V21.0556C26.7778 19.2222 26.1666 18 24.5555 18C23.3333 18 22.6111 18.8333 22.3333 19.6667C22.2222 19.9444 22.1667 20.3333 22.1667 20.7778V28.8889H17.7778V19.2778C17.7778 17.5 17.7222 16.0556 17.6667 14.7778H21.5L21.7222 16.7222H21.8334C22.3889 15.7778 23.8333 14.4444 26.1667 14.4444C29.0555 14.4444 31.2222 16.3889 31.2222 20.5556V28.8889H31.1667Z" fill="url(#paint0_linear)"/>
<defs>
<linearGradient id="paint0_linear" x1="20" y1="0" x2="20" y2="40" gradientUnits="userSpaceOnUse">
<stop stop-color="#5F8AFA"/>
<stop offset="1" stop-color="#6B6EF9"/>
</linearGradient>
</defs>
</svg>
