<svg width="41" height="40" viewBox="0 0 41 40" fill="none" xmlns="http://www.w3.org/2000/svg">
<path d="M0.278809 20C0.278809 31.0556 9.22325 40 20.2788 40C31.3344 40 40.2788 31.0556 40.2788 20C40.2788 8.94444 31.3344 0 20.2788 0C9.22325 0 0.278809 8.94444 0.278809 20ZM32.4455 11.3889C32.4455 11.3889 29.001 29 28.9455 29.3889C28.8344 29.8333 28.6677 30.2222 28.3344 30.5556C28.001 30.8889 27.501 31.2222 26.8899 31.2222C25.8344 31.2222 25.3344 30.5556 25.2788 30.5L21.5566 27L18.501 29.6667C18.501 29.6667 18.1121 30 17.5566 30C17.3899 30 17.2788 29.9444 17.1121 29.9444C17.0566 29.9444 17.0566 29.9444 17.001 29.9444C17.001 29.9444 17.001 29.9444 16.9455 29.9444C16.8899 29.9444 16.8344 29.8889 16.7788 29.8333C16.6122 29.7222 16.501 29.6111 16.3899 29.5C16.1677 29.2222 16.001 28.8889 15.8344 28.3333C15.5566 27.5 14.4455 24.0556 14.2233 23.4444C13.6677 23.2222 10.5566 21.9444 9.55659 21.5556C9.27882 21.4444 8.94548 21.2778 8.6677 21C8.38992 20.7222 8.11215 20.2222 8.11215 19.7222C8.11215 19.1111 8.50103 18.5556 8.83436 18.2778C9.16769 18 9.50102 17.8889 9.61214 17.8333C12.1121 16.7778 16.9455 14.6667 21.2788 12.7778C23.4455 11.8333 25.4455 11 27.001 10.3333C28.501 9.66667 29.501 9.27778 29.7788 9.16667C30.0566 9.05556 30.3344 8.94444 30.6677 8.94444C31.001 8.94444 31.3344 9 31.7233 9.22222C32.1121 9.44444 32.3899 9.83333 32.501 10.2778C32.5566 10.5 32.501 10.9444 32.4455 11.3889ZM22.001 14.5C17.6677 16.3333 12.8344 18.4444 10.3344 19.5556C11.3899 20 14.5566 21.2778 15.0566 21.5C17.9455 19.8333 24.3344 16.1111 25.7788 15.1667C25.8899 15.1111 26.1121 14.9444 26.2788 14.9444C26.4455 14.9444 26.501 15.0556 26.501 15.2222C26.501 15.3333 26.4455 15.4444 26.1121 15.7778C25.7233 16.1667 19.0566 23.1111 19.0566 23.1111L18.001 27.3889L21.6121 24.2778L26.6677 29.0556C26.6677 29.0556 26.7788 29.1111 26.8344 29.1667C26.8899 29.1111 26.9455 29 26.8899 29.0556C27.001 28.3889 30.3899 11.0556 30.3899 11.0556C30.3899 11 30.3899 11.0556 30.3899 11C30.2788 11.0556 29.2233 11.5 27.7233 12.1667C26.2233 12.7222 24.1677 13.6111 22.001 14.5Z" fill="url(#paint0_linear)"/>
<defs>
<linearGradient id="paint0_linear" x1="20.2788" y1="0" x2="20.2788" y2="40" gradientUnits="userSpaceOnUse">
<stop stop-color="#5F8AFA"/>
<stop offset="1" stop-color="#6B6EF9"/>
</linearGradient>
</defs>
</svg>
