<svg width="40" height="40" viewBox="0 0 40 40" fill="none" xmlns="http://www.w3.org/2000/svg">
<path d="M0 20C0 31.0556 8.94444 40 20 40C31.0556 40 40 31.0556 40 20C40 8.94444 31.0556 0 20 0C8.94444 0 0 8.94444 0 20ZM29.7778 15C29.7778 15.2222 29.7778 15.4444 29.7778 15.6667C29.7778 22.3333 24.7222 30.0556 15.3889 30.0556C12.5556 30.0556 9.88889 29.2222 7.66667 27.7778C8.11111 27.7778 8.5 27.7778 8.88889 27.7778C11.2778 27.7778 13.4444 26.9444 15.1667 25.6111C12.9444 25.5556 11.1111 24.1111 10.4444 22.1111C10.7778 22.1667 11.0556 22.2222 11.3889 22.2222C11.8333 22.2222 12.2778 22.1667 12.7222 22.0556C10.3889 21.6111 8.66667 19.5556 8.66667 17.1111V17.0556C9.33333 17.4444 10.1111 17.6667 10.9444 17.6667C9.61111 16.7778 8.72222 15.2222 8.72222 13.4444C8.72222 12.5 8.94444 11.6667 9.38889 10.8889C11.8889 13.9444 15.6111 15.9444 19.7778 16.1667C19.6667 15.7778 19.6667 15.3889 19.6667 15C19.6667 12.2222 21.9444 9.94444 24.7222 9.94444C26.1667 9.94444 27.5 10.5556 28.3889 11.5556C29.5556 11.3333 30.6111 10.8889 31.6111 10.3333C31.2222 11.5 30.4444 12.5 29.3889 13.1111C30.3889 13 31.3889 12.7222 32.2778 12.3333C31.6111 13.3889 30.7778 14.2778 29.7778 15Z" fill="url(#paint0_linear)"/>
<defs>
<linearGradient id="paint0_linear" x1="20" y1="0" x2="20" y2="40" gradientUnits="userSpaceOnUse">
<stop stop-color="#5F8AFA"/>
<stop offset="1" stop-color="#6B6EF9"/>
</linearGradient>
</defs>
</svg>
