<svg width="41" height="40" viewBox="0 0 41 40" fill="none" xmlns="http://www.w3.org/2000/svg">
<path d="M28.7788 21.1111C28.2232 21.1111 27.7788 21.5556 27.7788 22.1111C27.7788 22.7222 28.2232 23.1667 28.7788 23.1667C29.3344 23.1667 29.7788 22.7222 29.7788 22.1667C29.8344 21.6111 29.3344 21.1667 28.7788 21.1111ZM22.3344 21.1111C21.7788 21.1111 21.2788 21.6111 21.2788 22.1667C21.2788 22.7222 21.7788 23.1667 22.3344 23.1667C22.8899 23.1667 23.3344 22.7222 23.3899 22.1667C23.3899 21.6111 22.9455 21.1111 22.3344 21.1111ZM12.1121 13.1667C11.3899 13.1667 10.8344 13.6667 10.8344 14.3889C10.8344 15.1111 11.3344 15.6667 12.0566 15.6667C12.7788 15.6667 13.3344 15.1667 13.3899 14.4444C13.3344 13.7778 12.7788 13.2222 12.1121 13.1667ZM0.278809 20C0.278809 31.0556 9.22325 40 20.2788 40C31.3344 40 40.2788 31.0556 40.2788 20C40.2788 8.94444 31.3344 0 20.2788 0C9.22325 0 0.278809 8.94444 0.278809 20ZM13.2788 25.2778C12.9455 25.2222 12.501 25.2778 12.2233 25.4444C11.2788 26 10.3344 26.6111 9.22324 27.2778C9.44546 26.3889 9.55657 25.5556 9.7788 24.8333C9.94546 24.2778 9.88991 23.9444 9.33436 23.6111C6.00102 21.2778 4.61215 17.7222 5.6677 14.1111C6.61215 10.7778 9.00102 8.72222 12.2788 7.66667C16.7232 6.22222 21.6677 7.72222 24.3899 11.2222C25.3344 12.5 25.9455 13.8889 26.1121 15.6111C23.3344 15.7778 20.9455 16.6111 18.9455 18.5C16.9455 20.4444 16.0566 22.7778 16.3344 25.6667C15.2233 25.5556 14.2233 25.3889 13.2788 25.2778ZM32.7788 29.8333C31.9455 30.6111 31.6122 31.2222 32.1677 32.2222C32.2788 32.3889 32.2788 32.6667 32.3344 32.8889C31.4455 32.5 30.6677 31.8889 29.7788 31.8333C28.9455 31.7222 28.001 32.2222 27.1121 32.3333C24.3899 32.6111 21.9455 31.8333 19.9455 30C16.1122 26.4444 16.6677 21.0556 21.1121 18.1111C25.0566 15.5556 30.8344 16.3889 33.6121 19.9444C36.001 23.1111 35.7233 27.2222 32.7788 29.8333ZM20.001 15.6667C20.7233 15.6667 21.2233 15.1111 21.2233 14.3889C21.2233 13.7222 20.6677 13.1667 19.9455 13.1667C19.2788 13.1667 18.6677 13.7778 18.6677 14.4444C18.7788 15.1111 19.3344 15.6667 20.001 15.6667Z" fill="url(#paint0_linear)"/>
<defs>
<linearGradient id="paint0_linear" x1="20.2788" y1="0" x2="20.2788" y2="40" gradientUnits="userSpaceOnUse">
<stop stop-color="#5F8AFA"/>
<stop offset="1" stop-color="#6B6EF9"/>
</linearGradient>
</defs>
</svg>
